<?xml version="1.0" encoding="UTF-8"?> <svg xmlns="http://www.w3.org/2000/svg" width="182" height="54" viewBox="0 0 182 54" fill="none"><rect x="0.5" y="0.5" width="181" height="53" rx="11.5" fill="black"></rect><rect x="0.5" y="0.5" width="181" height="53" rx="11.5" stroke="white"></rect><path d="M95.878 17.863C94.6627 17.863 93.6381 17.4354 92.8279 16.5938C92.0243 15.7757 91.5757 14.6479 91.5957 13.4965C91.5957 12.2677 92.0109 11.2275 92.8279 10.4027C93.6348 9.56101 94.6593 9.13345 95.8747 9.13345C97.0767 9.13345 98.1012 9.56101 98.9249 10.4027C99.7418 11.2544 100.157 12.2947 100.157 13.4965C100.144 14.7287 99.7284 15.769 98.9249 16.5904C98.118 17.4388 97.0934 17.863 95.878 17.863ZM59.7146 17.863C58.526 17.863 57.4948 17.4422 56.6511 16.6106C55.814 15.7825 55.3888 14.7354 55.3888 13.4999C55.3888 12.2644 55.814 11.2174 56.6511 10.3892C57.4781 9.55764 58.5093 9.13682 59.7146 9.13682C60.3039 9.13682 60.8764 9.25465 61.4255 9.49368C61.9646 9.72597 62.4032 10.0424 62.728 10.4296L62.8083 10.5272L61.901 11.4227L61.8072 11.3116C61.295 10.6989 60.6086 10.3993 59.7012 10.3993C58.891 10.3993 58.1845 10.6888 57.602 11.2611C57.016 11.8368 56.718 12.5909 56.718 13.5033C56.718 14.4156 57.016 15.1697 57.602 15.7454C58.1845 16.3177 58.891 16.6073 59.7012 16.6073C60.5651 16.6073 61.2916 16.3177 61.8575 15.7454C62.1923 15.4088 62.3999 14.9374 62.4735 14.3416H59.564V13.0825H63.7224L63.7391 13.1969C63.7692 13.409 63.7994 13.6278 63.7994 13.8298C63.7994 14.9913 63.4512 15.9306 62.7615 16.6241C61.978 17.4455 60.9535 17.863 59.7146 17.863ZM107.797 17.6846H106.515L102.588 11.3655L102.621 12.5034V17.6812H101.339V9.31525H102.802L102.842 9.37921L106.535 15.3313L106.502 14.1968V9.31525H107.797V17.6846ZM86.2421 17.6846H84.943V10.5744H82.6897V9.31525H88.492V10.5744H86.2387V17.6846H86.2421ZM81.6316 17.6846H80.3359V9.31525H81.6316V17.6846ZM74.3494 17.6846H73.0537V10.5744H70.8004V9.31525H76.6027V10.5744H74.3494V17.6846ZM69.9801 17.6711H65.0114V9.31525H69.9801V10.5744H66.3105V12.8704H69.6218V14.116H66.3105V16.412H69.9801V17.6711ZM93.7787 15.7286C94.358 16.311 95.0611 16.6039 95.878 16.6039C96.7184 16.6039 97.4048 16.3177 97.9773 15.7286C98.5465 15.1563 98.8344 14.4055 98.8344 13.4999C98.8344 12.5943 98.5465 11.8402 97.9807 11.2712C97.4014 10.6888 96.695 10.3959 95.8814 10.3959C95.041 10.3959 94.3546 10.6821 93.7854 11.2712C93.2163 11.8436 92.9283 12.5943 92.9283 13.4999C92.9283 14.4055 93.2129 15.1596 93.7787 15.7286Z" fill="white"></path><path fill-rule="evenodd" clip-rule="evenodd" d="M91.4753 29.3701C88.3113 29.3701 85.7466 31.7839 85.7466 35.1135C85.7466 38.4127 88.3281 40.8569 91.4753 40.8569C94.6394 40.8569 97.2041 38.4262 97.2041 35.1135C97.2041 31.7839 94.6394 29.3701 91.4753 29.3701ZM91.4753 38.5811C89.7443 38.5811 88.2544 37.1402 88.2544 35.1C88.2544 33.0296 89.7477 31.619 91.4753 31.619C93.2063 31.619 94.6963 33.0296 94.6963 35.1C94.6996 37.1536 93.2063 38.5811 91.4753 38.5811ZM78.9766 29.3701C75.8126 29.3701 73.2479 31.7839 73.2479 35.1135C73.2479 38.4127 75.8293 40.8569 78.9766 40.8569C82.1406 40.8569 84.7053 38.4262 84.7053 35.1135C84.7053 31.7839 82.1373 29.3701 78.9766 29.3701ZM78.9766 38.5811C77.2456 38.5811 75.7556 37.1402 75.7556 35.1C75.7556 33.0296 77.2489 31.619 78.9766 31.619C80.7076 31.619 82.1975 33.0296 82.1975 35.1C82.1975 37.1536 80.7076 38.5811 78.9766 38.5811ZM64.104 31.1241V33.5547H69.9064C69.7289 34.9182 69.2803 35.9248 68.5939 36.615C67.7435 37.4701 66.431 38.3993 64.1174 38.3993C60.5516 38.3993 57.7625 35.504 57.7625 31.9186C57.7625 28.3332 60.5516 25.4379 64.1174 25.4379C66.0426 25.4379 67.4455 26.2021 68.4868 27.1784L70.201 25.4547C68.7546 24.061 66.8294 22.9938 64.1308 22.9938C59.2391 22.9938 55.1342 27 55.1342 31.9051C55.1342 36.8237 59.2357 40.8165 64.1308 40.8165C66.7725 40.8165 68.7546 39.9479 70.3216 38.3117C71.9186 36.7059 72.4242 34.4402 72.4242 32.6121C72.4242 32.0431 72.3807 31.5314 72.2903 31.0971H64.1006C64.104 31.0938 64.104 31.1241 64.104 31.1241ZM124.937 33.0161C124.458 31.7267 123.012 29.3566 120.045 29.3566C117.106 29.3566 114.661 31.6829 114.661 35.1C114.661 38.3252 117.079 40.8434 120.33 40.8434C122.942 40.8434 124.462 39.2375 125.088 38.2949L123.149 36.9887C122.506 37.9481 121.612 38.5777 120.343 38.5777C119.061 38.5777 118.164 37.9919 117.568 36.8372L125.205 33.6557C125.205 33.6591 124.937 33.0161 124.937 33.0161ZM117.149 34.935C117.089 32.7165 118.863 31.5887 120.132 31.5887C121.133 31.5887 121.967 32.0835 122.252 32.804L117.149 34.935ZM110.945 40.5H113.453V23.6267H110.945V40.5ZM106.827 30.646H106.736C106.17 29.9693 105.096 29.3566 103.723 29.3566C100.874 29.3566 98.2487 31.8782 98.2487 35.1168C98.2487 38.342 100.86 40.8333 103.723 40.8333C105.079 40.8333 106.17 40.2172 106.736 39.5271H106.827V40.3519C106.827 42.5435 105.662 43.7252 103.783 43.7252C102.246 43.7252 101.292 42.6142 100.904 41.685L98.7241 42.6008C99.3503 44.1157 101.021 45.9909 103.78 45.9909C106.72 45.9909 109.211 44.2504 109.211 40.0051V29.7H106.84V30.646C106.843 30.646 106.827 30.646 106.827 30.646ZM103.947 38.5811C102.216 38.5811 100.77 37.1267 100.77 35.1168C100.77 33.0902 102.216 31.6223 103.947 31.6223C105.662 31.6223 106.991 33.107 106.991 35.1168C107.008 37.1267 105.665 38.5811 103.947 38.5811ZM136.679 23.6267H130.683V40.5H133.19V34.1102H136.682C139.458 34.1102 142.187 32.0869 142.187 28.8752C142.187 25.6635 139.468 23.6267 136.679 23.6267ZM136.753 31.7536H133.187V25.9631H136.753C138.631 25.9631 139.692 27.5218 139.692 28.8584C139.692 30.1814 138.618 31.7536 136.753 31.7536ZM152.238 29.3398C150.417 29.3398 148.538 30.1511 147.762 31.9186L149.985 32.8478C150.464 31.9186 151.341 31.6021 152.268 31.6021C153.567 31.6021 154.88 32.3832 154.91 33.7769V33.9554C154.461 33.6995 153.477 33.309 152.298 33.309C149.898 33.309 147.464 34.6287 147.464 37.1031C147.464 39.3688 149.432 40.8232 151.625 40.8232C153.309 40.8232 154.237 40.059 154.816 39.1736H154.907V40.4798H157.324V34.016C157.324 31.0062 155.101 29.3398 152.238 29.3398ZM151.923 38.5811C151.103 38.5811 149.955 38.1771 149.955 37.1402C149.955 35.8339 151.388 35.339 152.61 35.339C153.715 35.339 154.237 35.5781 154.893 35.908C154.712 37.4229 153.44 38.5676 151.923 38.5811ZM166.143 29.7L163.264 37.019H163.173L160.19 29.7H157.491L161.968 39.9311L159.417 45.6172H162.028L168.915 29.7H166.143ZM143.57 40.5H146.077V23.6267H143.57V40.5Z" fill="white"></path><path fill-rule="evenodd" clip-rule="evenodd" d="M14.0088 10.1704C13.6204 10.5912 13.3961 11.2343 13.3961 12.0759V41.9274C13.3961 42.769 13.6204 43.4121 14.0222 43.816L14.126 43.9069L30.7597 27.1818V26.8081L14.1126 10.0795L14.0088 10.1704Z" fill="url(#paint0_linear_21_717)"></path><path fill-rule="evenodd" clip-rule="evenodd" d="M36.2941 32.7737L30.7461 27.1953V26.8047L36.2941 21.2263L36.4146 21.3004L42.9771 25.0507C44.8554 26.1146 44.8554 27.8719 42.9771 28.9492L36.4146 32.6996L36.2941 32.7737Z" fill="url(#paint1_linear_21_717)"></path><path fill-rule="evenodd" clip-rule="evenodd" d="M36.4147 32.6996L30.7462 27L14.0087 43.8295C14.6214 44.4894 15.6493 44.5635 16.7978 43.9204L36.4147 32.6996Z" fill="url(#paint2_linear_21_717)"></path><path fill-rule="evenodd" clip-rule="evenodd" d="M36.4147 21.3004L16.7978 10.0964C15.6493 9.43654 14.6181 9.52743 14.0087 10.1873L30.7462 27L36.4147 21.3004Z" fill="url(#paint3_linear_21_717)"></path><path opacity="0.2" fill-rule="evenodd" clip-rule="evenodd" d="M36.2942 32.5785L16.8111 43.7084C15.7229 44.3379 14.7519 44.2942 14.1258 43.7219L14.022 43.8262L14.1258 43.9171C14.7519 44.4861 15.7229 44.5332 16.8111 43.9037L36.4281 32.6997L36.2942 32.5785Z" fill="black"></path><path opacity="0.12" fill-rule="evenodd" clip-rule="evenodd" d="M42.9772 28.754L36.2775 32.5784L36.398 32.6996L42.9604 28.9493C43.9013 28.4106 44.3633 27.7036 44.3633 27C44.3064 27.6464 43.8276 28.2591 42.9772 28.754Z" fill="black"></path><path opacity="0.25" fill-rule="evenodd" clip-rule="evenodd" d="M16.7978 10.2917L42.9772 25.246C43.8276 25.7275 44.3064 26.357 44.3801 27C44.3801 26.2964 43.918 25.5894 42.9772 25.0508L16.7978 10.0964C14.9195 9.01575 13.3961 9.91799 13.3961 12.076V12.2712C13.3961 10.1099 14.9195 9.22448 16.7978 10.2917Z" fill="white"></path><defs><linearGradient id="paint0_linear_21_717" x1="29.2677" y1="11.7538" x2="2.60406" y2="18.8195" gradientUnits="userSpaceOnUse"><stop stop-color="#00A0FF"></stop><stop offset="0.00657" stop-color="#00A1FF"></stop><stop offset="0.2601" stop-color="#00BEFF"></stop><stop offset="0.5122" stop-color="#00D2FF"></stop><stop offset="0.7604" stop-color="#00DFFF"></stop><stop offset="1" stop-color="#00E3FF"></stop></linearGradient><linearGradient id="paint1_linear_21_717" x1="45.4266" y1="27" x2="12.9393" y2="27" gradientUnits="userSpaceOnUse"><stop stop-color="#FFE000"></stop><stop offset="0.4087" stop-color="#FFBD00"></stop><stop offset="0.7754" stop-color="#FFA500"></stop><stop offset="1" stop-color="#FF9C00"></stop></linearGradient><linearGradient id="paint2_linear_21_717" x1="33.3324" y1="30.1014" x2="11.7686" y2="66.1966" gradientUnits="userSpaceOnUse"><stop stop-color="#FF3A44"></stop><stop offset="1" stop-color="#C31162"></stop></linearGradient><linearGradient id="paint3_linear_21_717" x1="9.79404" y1="0.241371" x2="19.4146" y2="16.3621" gradientUnits="userSpaceOnUse"><stop stop-color="#32A071"></stop><stop offset="0.0685" stop-color="#2DA771"></stop><stop offset="0.4762" stop-color="#15CF74"></stop><stop offset="0.8009" stop-color="#06E775"></stop><stop offset="1" stop-color="#00F076"></stop></linearGradient></defs></svg> 