<?xml version="1.0" encoding="UTF-8"?> <svg xmlns="http://www.w3.org/2000/svg" width="121" height="166" viewBox="0 0 121 166" fill="none"><path d="M118.099 104.035C120.366 105.071 121.726 107.558 120.593 109.838C104.498 145.898 82.0574 166 47.149 166C46.0156 166 44.8822 166 43.7488 165.793C30.8282 165.171 19.9477 161.026 12.2406 153.98C4.53356 146.727 0 136.986 0 124.966C0 124.137 0 123.308 0 122.065C0.906711 108.802 7.25369 93.8801 20.401 82.2747C26.068 77.3009 33.095 72.9488 41.482 69.633C35.1351 63.4157 31.0549 55.1261 31.9616 45.3858C32.4149 42.4844 32.8683 39.7903 33.775 36.8889C31.2815 35.8527 28.7881 34.6092 26.5213 33.1586C16.7742 27.3558 8.1604 18.8589 2.0401 6.83896C0.906711 4.5593 1.81342 2.07242 4.30688 1.0362C6.57366 -2.83966e-07 9.52047 0.828965 10.6539 3.10862C16.0941 13.4707 23.3478 20.9313 31.7349 25.9051C33.3216 26.9413 35.1351 27.7703 36.9485 28.8065C40.122 22.5893 44.4289 17.4082 49.6424 13.0562C59.6163 4.76654 72.9903 0 87.271 0C93.8446 0 100.192 1.24345 104.498 4.14483C109.032 6.83896 111.979 10.9838 111.979 16.5793V16.7865V16.9938C111.752 23.4182 106.539 30.2572 97.4715 35.231C89.3111 39.9975 77.7505 43.3134 64.1498 43.3134L62.3364 43.1061C55.9894 43.1061 49.1891 42.0699 42.6154 40.2047C42.1621 42.0699 41.7087 44.1423 41.482 46.2147C40.802 54.5044 45.3356 61.3433 51.4559 66.3171C55.9894 65.2809 60.9763 64.2447 65.9633 63.8302C69.8168 63.4157 72.9903 63.4157 75.4837 63.8302C78.4305 64.2447 80.6973 65.0737 82.0574 66.5244C84.0975 67.975 84.7775 69.8402 85.0042 71.7054C85.2309 72.5343 85.2309 73.5705 85.0042 74.3995C84.0975 79.3733 80.244 82.0674 74.8037 82.8964C71.8569 83.5181 68.23 83.1036 64.6032 82.2747C60.9763 81.6529 57.1228 80.2022 53.496 78.3371C52.1359 77.7154 51.0025 76.8864 49.6424 76.0574C40.3487 79.166 32.8683 83.5181 26.9747 88.6991C15.8674 98.4395 10.2005 111.081 9.74715 122.687C9.52047 123.308 9.52047 124.137 9.52047 124.966C9.52047 134.499 12.9206 142.375 19.0409 147.763C24.9346 153.358 33.775 156.674 44.2022 157.089C44.8822 157.089 46.0156 157.296 47.149 157.296C77.9772 157.296 97.0181 139.266 111.752 106.522C112.659 104.242 115.606 103.206 118.099 104.035ZM67.0966 72.5343C65.9633 72.5343 64.6032 72.7416 63.4698 72.9488C64.6032 73.3633 65.7366 73.5705 66.87 73.7778C69.3634 74.3995 71.6302 74.6068 73.4436 74.3995C74.577 74.1923 75.4837 73.7778 75.4837 72.9488C75.257 72.7416 74.8037 72.5343 73.897 72.3271C72.3102 72.1199 70.0435 72.1199 67.0966 72.5343ZM56.2161 19.4807C51.9092 23.0037 48.2824 27.1486 45.7889 31.9151C51.4559 33.573 57.1228 34.402 62.5631 34.402H64.1498C75.7104 34.402 85.6842 31.7079 92.4846 27.7703C98.6049 24.2472 102.232 20.3096 102.458 16.7865V16.5793C102.458 14.2996 101.098 12.6417 99.2849 11.3983C96.3381 9.53308 92.0312 8.70412 87.271 8.70412C75.257 8.70412 64.3765 12.8489 56.2161 19.4807Z" fill="white"></path></svg> 